Coordinates
version=1
nRows=17
nColumns=36
inDegrees=yes

Units are S.I. units (second, meters, Newtons, ...)
If the header above contains a line with 'inDegrees', this indicates whether rotational values are in degrees (yes) or radians (no).

endheader
time	pelvis_tilt	pelvis_list	pelvis_rotation	pelvis_tx	pelvis_ty	pelvis_tz	hip_flexion_r	hip_adduction_r	hip_rotation_r	knee_angle_r	knee_angle_r_beta	ankle_angle_r	subtalar_angle_r	mtp_angle_r	hip_flexion_l	hip_adduction_l	hip_rotation_l	knee_angle_l	knee_angle_l_beta	ankle_angle_l	subtalar_angle_l	mtp_angle_l	lumbar_extension	lumbar_bending	lumbar_rotation	arm_flex_r	arm_add_r	arm_rot_r	elbow_flex_r	pro_sup_r	arm_flex_l	arm_add_l	arm_rot_l	elbow_flex_l	pro_sup_l
      0.00000000	     -0.78769139	     -1.73056742	     -0.30116686	     -1.03457730	      1.37605703	     -0.11234090	     -2.48983693	      1.35921621	    -12.18613629	      0.14290754	      0.00249421	      5.78540984	     -8.85728863	     -5.42316824	     -3.63727112	      0.58385849	    -10.85336906	      0.15725008	      0.00274453	      8.48265276	     -4.73483681	     -5.42316824	     -6.29141502	      2.19187180	     -1.44230481	     -1.19073808	     -6.24221746	     11.74773999	     31.05863512	     80.75589511	     -5.62170617	    -10.35946908	     10.46960241	     38.18144723	     75.07285218
      0.00416670	     -2.90868337	     -2.24268769	     -0.26216266	     -1.03035907	      1.37523318	     -0.11344259	     -0.56358939	      1.98648813	    -12.83017155	      0.17741744	      0.00309652	      7.84184370	     -6.32246285	     -5.69307397	     -1.07063518	      0.26784396	    -13.37456422	      0.18657971	      0.00325643	      9.68745820	     -3.54692689	     -5.69307397	     -2.69704436	      2.75300648	     -1.03275902	     -2.37577800	     -5.98058228	     10.13619326	     30.53307399	     79.75824301	     -5.82169363	     -9.19869704	      8.39261805	     36.34846335	     74.31819031
      0.00833330	     -3.39954260	     -1.58471952	     -1.09361761	     -1.02947931	      1.37553239	     -0.11089667	     -0.00426041	      1.43668379	    -13.46784112	      0.16236932	      0.00283388	      8.66827329	     -5.55785681	     -5.84779000	     -0.50407723	      0.93590504	    -14.87788930	      0.19905743	      0.00347421	     10.24810809	     -2.95023467	     -5.84779000	     -1.68331207	      1.64059267	     -0.42512096	     -2.71438482	     -5.46602581	      9.31422079	     30.79104057	     78.83475462	     -6.08782840	     -9.69801731	      7.95664615	     36.28512549	     73.92953977
      0.01250000	     -3.67654274	     -1.26571067	     -1.42361936	     -1.02862303	      1.37429354	     -0.11070374	      0.34372979	      1.17549347	    -14.07953483	      0.14602992	      0.00254870	      9.25392362	     -4.66590466	     -6.14336260	     -0.27852455	      1.25770410	    -15.45865991	      0.18334047	      0.00319989	     10.31370952	     -3.18455197	     -6.14336260	     -1.02869033	      1.06215862	      0.10266285	     -3.26621386	     -5.33732560	      8.97512502	     31.48633566	     77.45387953	     -6.39366169	    -10.35971692	      8.28890407	     36.72611121	     73.48399662
      0.01666670	     -4.15071566	     -1.07175082	     -1.53951556	     -1.02869106	      1.37643393	     -0.11024429	      0.82456245	      1.08223801	    -14.82074080	      0.13492451	      0.00235488	      9.72304984	     -3.70831602	     -6.72252458	      0.16115853	      1.46137980	    -15.67434047	      0.17920189	      0.00312766	     10.35902796	     -3.15931279	     -6.72252458	     -0.23834230	      0.84067584	      0.92394841	     -4.24830901	     -5.24246474	      7.56761553	     32.43399263	     81.41567482	     -6.07873074	    -10.86341624	      9.34120447	     36.56972198	     81.75782302
      0.02083330	     -4.30479691	     -0.90080188	     -1.67978360	     -1.02957550	      1.37494481	     -0.10943183	      1.03691831	      1.00960289	    -14.80333628	      0.12790815	      0.00223242	      9.95306333	     -3.59899079	     -6.81371782	      0.32817308	      1.61456247	    -15.49828578	      0.18149652	      0.00316771	     10.24006788	     -3.64294673	     -6.81371782	      0.00823467	      0.61584049	      1.22009664	     -4.50476150	     -5.32424520	      8.10610334	     32.93178565	     80.56880591	     -6.09157614	    -11.12316288	      9.62375863	     37.13899866	     80.93783424
      0.02500000	     -4.40452098	     -0.82002866	     -1.73552517	     -1.03102881	      1.36911562	     -0.10966826	      1.20481100	      0.95274169	    -14.95608833	      0.12329390	      0.00215188	     10.10559311	     -3.48561578	     -6.87795512	      0.46311276	      1.68046816	    -15.38824674	      0.18799066	      0.00328106	     10.41354873	     -3.75622054	     -6.87795512	      0.10526724	      0.52824741	      1.42101258	     -4.56332381	     -5.66903064	      9.56990820	     33.37515172	     80.45115385	     -5.90381351	    -11.50693286	     10.67700531	     37.68448115	     81.25366147
      0.02916670	     -4.42871550	     -0.75789791	     -1.80501859	     -1.03034201	      1.36805695	     -0.11062130	      1.31795996	      0.85125815	    -14.79577093	      0.12122159	      0.00211572	     10.07119550	     -3.86596443	     -6.95139187	      0.49236411	      1.75690227	    -14.94408876	      0.18774577	      0.00327678	     10.49568128	     -4.20531145	     -6.95139187	      0.05307169	      0.49280822	      1.54801159	     -4.72452717	     -5.85232713	      9.89518075	     33.97886921	     79.33941506	     -5.86109697	    -11.57679056	     10.83520904	     38.27407107	     80.26103232
      0.03333330	     -4.56059835	     -0.72161420	     -1.70446347	     -1.02732398	      1.37615958	     -0.10875839	      1.39273298	      0.85286937	    -15.13332502	      0.11766707	      0.00205368	      9.96264624	     -3.64072112	     -7.06441741	      0.60577831	      1.74909108	    -14.92358669	      0.18567890	      0.00324071	     10.32531108	     -4.30518229	     -7.06441741	      0.31754392	      0.42406548	      1.56337424	     -4.76060002	     -5.96212604	     11.03047557	     33.64732404	     78.49031068	     -5.67738694	    -11.72275848	     11.73688638	     37.99862215	     80.09874424
      0.03750000	     -4.63841307	     -0.65871689	     -1.74356360	     -1.03139770	      1.37477397	     -0.11037161	      1.55414428	      0.77540792	    -14.92972608	      0.11503843	      0.00200780	      9.50680490	     -4.11851788	     -7.15038642	      0.75798511	      1.83854919	    -14.44886273	      0.18455119	      0.00322103	      9.87407189	     -4.98158537	     -7.15038642	      0.21540489	      0.38931148	      1.60964944	     -4.83323025	     -6.05429434	     11.09914425	     34.08248323	     77.21734849	     -5.57971758	    -11.74494216	     11.77709845	     38.32595691	     78.99292986
      0.04166670	     -4.65863471	     -0.74608046	     -1.69037695	     -1.02974035	      1.36981861	     -0.10895661	      1.63717615	      0.87455874	    -15.01701252	      0.11205403	      0.00195571	      9.47462571	     -3.84755813	     -7.29659171	      0.75595830	      1.70040329	    -14.58805552	      0.18366956	      0.00320564	      9.96427290	     -4.57251896	     -7.29659171	      0.21017118	      0.44697064	      1.52331419	     -4.81720316	     -6.09411953	     11.00116712	     34.03677446	     80.38372810	     -5.63316084	    -11.69288127	     10.70340334	     38.43744150	     85.74771888
      0.04583330	     -4.84928580	     -0.69971096	     -1.73430434	     -1.02955183	      1.37681467	     -0.10856666	      1.85812350	      0.87181192	    -15.07179676	      0.11033249	      0.00192567	      9.20832904	     -3.67924697	     -7.30900428	      0.96607696	      1.74265746	    -14.63487278	      0.17995253	      0.00314076	      9.75557878	     -4.49081860	     -7.30900428	      0.43613274	      0.39877156	      1.56751645	     -4.91667296	     -6.05590954	     11.01119534	     33.98033928	     80.05934376	     -5.67223324	    -11.73644953	     10.74170099	     38.38712647	     85.32013102
      0.05000000	     -4.80936384	     -0.70459499	     -1.70912192	     -1.02952054	      1.37505055	     -0.10919887	      1.76631456	      0.88390643	    -15.25817622	      0.10864705	      0.00189625	      9.18480492	     -3.40689883	     -7.35656373	      0.94846849	      1.74870052	    -14.58132921	      0.17956555	      0.00313401	      9.59827310	     -4.54315192	     -7.35656373	      0.31497087	      0.40969910	      1.58175988	     -4.91109806	     -6.15443782	     11.45501219	     34.04711335	     78.19209511	     -5.60470202	    -11.94065894	     11.49864650	     38.60447234	     83.49226017
      0.05416670	     -4.90434797	     -0.75295594	     -1.69537711	     -1.03162324	      1.37143035	     -0.11033903	      1.94716059	      0.89596404	    -15.05464192	      0.10776851	      0.00188092	      8.97860195	     -3.69167290	     -7.39617667	      1.03635671	      1.69213367	    -14.38639101	      0.17637992	      0.00307841	      9.51421695	     -4.39991419	     -7.39617667	      0.32773578	      0.48529401	      1.63690513	     -5.01421762	     -6.17201603	     10.86994692	     34.25932815	     80.36650815	     -5.58679432	    -11.80722511	     10.58973988	     38.72605846	     87.98304398
      0.05833330	     -4.86385977	     -0.84946949	     -1.65238278	     -1.03218085	      1.37025760	     -0.11005311	      1.99353135	      0.95972370	    -14.67560623	      0.10635103	      0.00185618	      8.88408096	     -4.16206335	     -7.40912137	      1.02561020	      1.59917365	    -13.84267553	      0.17320775	      0.00302305	      9.46599297	     -4.58900975	     -7.40912137	      0.19130462	      0.61561406	      1.59723453	     -4.99911092	     -6.26888625	     10.90240033	     34.53012958	     79.17153879	     -5.57257047	    -11.82061970	     10.64320735	     38.98643219	     86.44640697
      0.06250000	     -4.82038096	     -0.94070092	     -1.60174464	     -1.03184966	      1.36865377	     -0.11033855	      1.99943378	      1.02229746	    -14.33478179	      0.10584677	      0.00184737	      8.67870629	     -4.61521100	     -7.43728064	      0.97769363	      1.49718289	    -13.58195294	      0.16937018	      0.00295607	      9.34478464	     -4.72800246	     -7.43728064	      0.05358021	      0.75061178	      1.47499347	     -5.05453044	     -6.32674902	     10.91247026	     35.03721328	     75.59134222	     -5.67709548	    -11.81442768	     10.80132689	     39.28161889	     81.86098576
      0.06666670	     -4.88515503	     -1.03061211	     -1.46100219	     -1.03249545	      1.37237442	     -0.11003011	      2.09350863	      1.11080130	    -14.55590067	      0.10582268	      0.00184695	      8.89359589	     -4.07395630	     -7.45417761	      1.03368613	      1.37400877	    -13.80286259	      0.17068980	      0.00297910	      9.82874508	     -4.02429782	     -7.45417761	      0.18802920	      0.82975098	      1.48358093	     -4.95080180	     -6.39688202	     10.96839869	     34.50470672	     79.86810566	     -5.53603767	    -11.77164852	     10.16754250	     39.02907785	     89.77949845
